<!-- Generated by IcoMoon.io -->
<svg xmlns="http://www.w3.org/2000/svg" width="32" height="32">
<symbol id="magnifying-glass" viewBox="0 0 32 32"> 
<title>magnifying-glass</title>
<path d="M31.589 29.677l-7.21-7.217c1.945-2.369 3.106-5.403 3.106-8.705 0-7.589-6.153-13.742-13.742-13.742s-13.742 6.153-13.742 13.742 6.153 13.742 13.742 13.742c3.315 0 6.356-1.175 8.731-3.132l7.21 7.21c0.842 0.77 1.631 0.274 1.905 0 0.548-0.542 0.548-1.357 0-1.899zM2.682 13.755c0-6.108 4.953-11.060 11.060-11.060s11.067 4.953 11.067 11.060-4.953 11.060-11.060 11.060-11.067-4.953-11.067-11.060z"></path>
</symbol>
</svg>
